#!OML:ASF E:/inclinewalkrobotboard/Project1/Captureday1/Session1/subject1.ASF
:FULLY-SPECIFIED
:DEGREES
88
root 0 0 0 1.1073156234073074 -3.7036576154417222 1.8134571281086487
lowerback 11.910262237199166 0.86278772178825 -0.029056577365860342
upperback -4.226498388094639 1.0972662979934937 -0.5457580248651175
thorax -11.29003900982951 0.5011774213691171 -0.807568678771482
lowerneck -5.82329170672757 1.4763563979294465 4.566546887264491
upperneck 18.091961705973972 2.932432970086375 -8.32874068941944
head 6.616003999517005 1.0659844941532026 -3.221021510467798
rclavicle 1.4539114855456183E-15 -1.219658746642731E-15
rhumerus 19.41079087716325 14.028911030714148 -48.38104535411513
rradius 71.73910454563605
rwrist 26.665259383627365
rhand -34.62425878057938 -56.26857514261134
rfingers 7.125020000000028
rthumb -7.765967995695876 -86.19951687727718
lclavicle 1.2678442854740984E-15 -1.9040542948141955E-15
lhumerus 20.740922778710758 -12.305298790859094 44.86913783137138
lradius 69.75360591428716
lwrist -22.665494382374806
lhand -44.49050974049523 -69.26669075862915
lfingers 7.12502000000002
lthumb -17.317655182180797 -39.99076336463685
rfemur -24.644685300646017 -2.0973048618025096 17.18252992563639
rtibia 53.83737320670449
rfoot -29.096543621196098 -17.03060298903198
rtoes -18.318454269442103
lfemur -26.248506812594883 2.5180976418519787 -18.018612876719153
ltibia 54.201043535600434
lfoot -31.064897429468044 -3.4496741618332636
ltoes -20.147806911183963
89
root 0 0 0 1.1066616826359663 -3.704136216429027 1.8135214024483584
lowerback 11.91027436971388 0.8627098284945386 -0.028951993454158248
upperback -4.226152496345515 1.0971976406410855 -0.5456547029105916
thorax -11.28965750408846 0.501139154627314 -0.8074914500869287
lowerneck -5.821172423629383 1.4760353628270992 4.5669521590787925
upperneck 18.090783381197678 2.9320736020319735 -8.329848272894543
head 6.615270308407095 1.0658207124121941 -3.22147764970337
rclavicle 1.442002078637778E-15 -1.2110945271730606E-15
rhumerus 19.41185001100073 14.029373640944884 -48.37817070617293
rradius 71.73933841908365
rwrist 26.66676319729243
rhand -34.62046966087738 -56.26467395322847
rfingers 7.125020000000028
rthumb -7.762354656685225 -86.19573225392891
lclavicle 1.2384425039509594E-15 -1.891278960926878E-15
lhumerus 20.741883733027457 -12.306212204613942 44.86924680663092
lradius 69.75421070115974
lwrist -22.665519855498115
lhand -44.49092363540726 -69.26522865455908
lfingers 7.12502000000002
lthumb -17.31798735506408 -39.98865299406319
rfemur -24.645046075877847 -2.0970700857984363 17.181852508090994
rtibia 53.83651271641742
rfoot -29.095439628059495 -17.02960779833398
rtoes -18.318090347163345
lfemur -26.246232104793496 2.5188510657262286 -18.01834301144456
ltibia 54.20011956672977
lfoot -31.063685357351293 -3.447943870185173
ltoes -20.15262463479223
90
root 0 0 0 1.1062141459409296 -3.7044524196512936 1.8135629742833133
lowerback 11.910281108643037 0.8626554223131618 -0.028873924751187524
upperback -4.2259038905748 1.0971508113704396 -0.5455822697088588
thorax -11.28938178107967 0.5011126166431262 -0.8074394920358681
lowerneck -5.819670430135436 1.4757905348960993 4.5672336711597
upperneck 18.089923278492805 2.931792761728543 -8.3306229324825
head 6.61474225266873 1.0656932814307225 -3.2217996546023073
rclavicle 1.449431107456996E-15 -1.2117979289052647E-15
rhumerus 19.412751129829985 14.030379809439623 -48.37803593608961
rradius 71.73981221105922
rwrist 26.66639154791342
rhand -34.619206256106224 -56.262890527862076
rfingers 7.125020000000028
rthumb -7.7611321697354025 -86.19393057715858
lclavicle 1.2442250361878478E-15 -1.8925396770704465E-15
lhumerus 20.742038314329267 -12.30688051686418 44.868546541026326
lradius 69.75445294070529
lwrist -22.66561982619036
lhand -44.4904331993884 -69.26249550583941
lfingers 7.12502000000002
lthumb -17.31751841699039 -39.986049089709816
rfemur -24.64510763744275 -2.097049676558279 17.181854252779793
rtibia 53.83646612945492
rfoot -29.09550203351398 -17.02955719882698
rtoes -18.318080894085202
lfemur -26.245846654539235 2.5190331040438485 -18.01833232534594
ltibia 54.199953413498775
lfoot -31.063517197442227 -3.4477646938410196
ltoes -20.153915052760674
91
root 0 0 0 1.1058015181320033 -3.7047483137009656 1.8136000473122178
lowerback 11.910283819946162 0.862605518495749 -0.028801068713037226
upperback -4.225678151867968 1.0971079136382837 -0.5455157543854663
thorax -11.289129353278291 0.501088245988219 -0.8073925025551181
lowerneck -5.818284482524954 1.4755675478979318 4.567493871866622
upperneck 18.0891322628304 2.931537883311205 -8.331335888156195
head 6.614255701516576 1.065577669633107 -3.2220957905928262
rclavicle 1.4536987688995216E-15 -1.211789426653327E-15
rhumerus 19.413839048871417 14.031542858988656 -48.377708453952735
rradius 71.74045353896179
rwrist 26.66602884637675
rhand -34.61776044818375 -56.26096921547629
rfingers 7.125020000000028
rthumb -7.759728531956014 -86.19204980847974
lclavicle 1.247856638809245E-15 -1.892904635504724E-15
lhumerus 20.74214973049601 -12.30748285736924 44.86796549835314
lradius 69.75468504064244
lwrist -22.665683410728274
lhand -44.48995898618796 -69.25976142519234
lfingers 7.12502000000002
lthumb -17.317057412138304 -39.98336024402738
rfemur -24.64506182243146 -2.0970365379597538 17.181883311399996
rtibia 53.83655990492529
rfoot -29.095582963024096 -17.029491079613905
rtoes -18.318151571479632
lfemur -26.24554277644528 2.519207266739275 -18.018321111982743
ltibia 54.199989207136824
lfoot -31.063422620923546 -3.4476194183612803
ltoes -20.154968640184123
92
root 0 0 0 1.1054962874312015 -3.7049662002072012 1.8136278292816503
lowerback 11.91028717709145 0.8625684849306714 -0.028746924284787284
upperback -4.225509215878644 1.0970761564317377 -0.545466269737523
thorax -11.28894120696503 0.5010701906774716 -0.8073575101890759
lowerneck -5.817255815839777 1.4754004074233988 4.567686710682164
upperneck 18.088542259646598 2.9313463147995056 -8.331865690946072
head 6.613893671549205 1.065490779647563 -3.222316013454659
rclavicle 1.455210297809319E-15 -1.2114814044937559E-15
rhumerus 19.41446068863404 14.032191625177717 -48.377451437531896
rradius 71.74080191901645
rwrist 26.665852235570934
rhand -34.616862798681964 -56.25978460728541
rfingers 7.125020000000028
rthumb -7.7588590445685135 -86.1909005715251
lclavicle 1.2489569273372342E-15 -1.8926899738198018E-15
lhumerus 20.742250536313254 -12.307860495994547 44.86760210333999
lradius 69.75484206789751
lwrist -22.665733434480053
lhand -44.48969339392979 -69.2581272159785
lfingers 7.12502000000002
lthumb -17.31679800695983 -39.981729526121185
rfemur -24.645062027846212 -2.097037250362246 17.181896260370127
rtibia 53.836609022536614
rfoot -29.095660772618015 -17.0294756567905
rtoes -18.318172972061472
lfemur -26.24533501872158 2.5193260367401598 -18.018313746344376
ltibia 54.1999861246121
lfoot -31.063370646225284 -3.4474991492529714
ltoes -20.155700778243816
93
root 0 0 0 1.1061118607828329 -3.7045139753403173 1.8135667450741138
lowerback 11.91027752118163 0.8626415179004165 -0.028842258601730175
upperback -4.225828944279311 1.0971411095053771 -0.5455624075639631
thorax -11.289294582478423 0.5011062133378165 -0.807430496973947
lowerneck -5.819229181711361 1.4756933754240855 4.567307970251133
upperneck 18.08962768487729 2.931672034081928 -8.330833603795314
head 6.614573045136956 1.06563936994772 -3.221891821732824
rclavicle 1.460584592523347E-15 -1.2194180170658916E-15
rhumerus 19.41315625131842 14.031382484758023 -48.38011617398509
rradius 71.74044803287167
rwrist 26.664577587775035
rhand -34.62090827149369 -56.26416667050939
rfingers 7.125020000000028
rthumb -7.762720851932896 -86.19523414187091
lclavicle 1.272893114659408E-15 -1.904440527694596E-15
lhumerus 20.74131703858307 -12.30677585527205 44.86772957849598
lradius 69.75422403324103
lwrist -22.665667101079418
lhand -44.48948375093182 -69.2604158367932
lfingers 7.12502000000002
lthumb -17.316656372248886 -39.98453297351138
rfemur -24.644706858911114 -2.097325550490901 17.18257036161645
rtibia 53.83758907057455
rfoot -29.096854867275745 -17.030546778103005
rtoes -18.318553228296008
lfemur -26.247730294984994 2.518534834406909 -18.01858915827061
ltibia 54.201039695143486
lfoot -31.064693729640403 -3.4492250000244513
ltoes -20.15054664693404
94
root 0 0 0 1.1057458797366637 -3.704787991575542 1.8136046643072294
lowerback 11.910285821748285 0.8625985824247213 -0.02878882034842989
upperback -4.225643391998641 1.0971023877841022 -0.5455058592162907
thorax -11.289091268670692 0.5010849691060838 -0.8073863827548731
lowerneck -5.81808163023719 1.4755310679725677 4.567531128036675
upperneck 18.089007427867724 2.9314948744112876 -8.331440357310292
head 6.614181546389643 1.065558239646379 -3.2221396822935158
rclavicle 1.4471419719026587E-15 -1.2109208174573832E-15
rhumerus 19.41366751196482 14.031272811092983 -48.377459385935126
rradius 71.74037172939893
rwrist 26.6662392554571
rhand -34.61789838628876 -56.26129208516413
rfingers 7.125020000000028
rthumb -7.759862665089498 -86.19244647442514
lclavicle 1.2423441912269905E-15 -1.8916047752872828E-15
lhumerus 20.74218352369543 -12.307344110054578 44.868167316055555
lradius 69.75468263936064
lwrist -22.6656516528351
lhand -44.490136274361845 -69.26041604337424
lfingers 7.12502000000002
lthumb -17.317220796327867 -39.983875536493684
rfemur -24.645062255991256 -2.0970860735230934 17.18188321683914
rtibia 53.836678632336806
rfoot -29.09567812858645 -17.029565079086815
rtoes -18.318167105142376
lfemur -26.245638196644475 2.5191858826356888 -18.018326031247824
ltibia 54.20011546717155
lfoot -31.06352926556508 -3.447601179803293
ltoes -20.15472110336667
95
root 0 0 0 1.105518408142553 -3.7049477838039016 1.8136261802669469
lowerback 11.91028971544516 0.8625709061090836 -0.028749932298480857
upperback -4.225517277065894 1.0970784415244803 -0.5454691924039998
thorax -11.288951727296835 0.5010714476706575 -0.8073596975078439
lowerneck -5.817322477106651 1.4754075905820823 4.567673492778988
upperneck 18.088574173574905 2.931353345842603 -8.33183232024972
head 6.613915161563906 1.0654939937336187 -3.222302531260114
rclavicle 1.4533499508042445E-15 -1.211655732190958E-15
rhumerus 19.414140019467887 14.031831054953486 -48.37749202139245
rradius 71.74060173792992
rwrist 26.6659914013368
rhand -34.617241279081945 -56.260306251118884
rfingers 7.125020000000028
rthumb -7.759227829898464 -86.1914198454705
lclavicle 1.247195431306926E-15 -1.892776561703556E-15
lhumerus 20.74226699315992 -12.307743956912036 44.867723070691945
lradius 69.75481294477686
lwrist -22.665720628037928
lhand -44.48983249138733 -69.25882321260192
lfingers 7.12502000000002
lthumb -17.316933518842212 -39.98240323435827
rfemur -24.645119545980698 -2.0970616935982633 17.18187774800066
rtibia 53.83659245846788
rfoot -29.095684406778155 -17.029524837160544
rtoes -18.318139246803426
lfemur -26.24539296996577 2.5192889395850075 -18.018319446198753
ltibia 54.19994976931412
lfoot -31.063397807404165 -3.447502924429238
ltoes -20.155516135432773
